HIERARCHY
ROOT Hips
{
    OFFSET   0.000000   0.000000   0.000000
    CHANNELS 6 Xposition Yposition Zposition Zrotation Xrotation Yrotation
    JOINT Chest
    {
        OFFSET   0.000000   8.007240   0.000000
        CHANNELS 3 Zrotation Xrotation Yrotation
        JOINT Chest2
        {
            OFFSET   0.000000  22.077100   0.000000
            CHANNELS 3 Zrotation Xrotation Yrotation
            JOINT Neck
            {
                OFFSET   0.000000  23.254800   0.000000
                CHANNELS 3 Zrotation Xrotation Yrotation
                JOINT Head
                {
                    OFFSET   0.000000  14.370000   1.956600
                    CHANNELS 3 Zrotation Xrotation Yrotation
                    End Site
                    {
                        OFFSET   0.000000  19.566000   0.000000
                    }
                }
            }
            JOINT LeftCollar
            {
                OFFSET   3.911900  19.017000  -0.467064
                CHANNELS 3 Zrotation Xrotation Yrotation
                JOINT LeftShoulder
                {
                    OFFSET  10.383700   0.000000   0.000000
                    CHANNELS 3 Zrotation Xrotation Yrotation
                    JOINT LeftElbow
                    {
                        OFFSET  26.662100   0.001476   0.000517
                        CHANNELS 3 Zrotation Xrotation Yrotation
                        JOINT LeftWrist
                        {
                            OFFSET  28.869000  -0.000025  -0.000106
                            CHANNELS 3 Zrotation Xrotation Yrotation
                            JOINT LeftFinger0
                            {
                                OFFSET   2.044660  -2.323460   3.252850
                                CHANNELS 3 Zrotation Xrotation Yrotation
                                JOINT LeftFinger01
                                {
                                    OFFSET   3.088130   0.000000   0.000000
                                    CHANNELS 3 Zrotation Xrotation Yrotation
                                    JOINT LeftFinger02
                                    {
                                        OFFSET   2.639460   0.000000   0.000000
                                        CHANNELS 3 Zrotation Xrotation Yrotation
                                        End Site
                                        {
                                            OFFSET   2.582190   0.000000   0.000000
                                        }
                                    }
                                }
                            }
                            JOINT LeftFinger1
                            {
                                OFFSET   8.364480   0.000000   3.252850
                                CHANNELS 3 Zrotation Xrotation Yrotation
                                JOINT LeftFinger11
                                {
                                    OFFSET   4.646930   0.000000   0.000000
                                    CHANNELS 3 Zrotation Xrotation Yrotation
                                    JOINT LeftFinger12
                                    {
                                        OFFSET   2.323460   0.000000   0.000000
                                        CHANNELS 3 Zrotation Xrotation Yrotation
                                        End Site
                                        {
                                            OFFSET   2.273050   0.000000   0.000000
                                        }
                                    }
                                }
                            }
                            JOINT LeftFinger2
                            {
                                OFFSET   8.364490   0.000015   1.078090
                                CHANNELS 3 Zrotation Xrotation Yrotation
                                JOINT LeftFinger21
                                {
                                    OFFSET   5.111620   0.000000   0.000000
                                    CHANNELS 3 Zrotation Xrotation Yrotation
                                    JOINT LeftFinger22
                                    {
                                        OFFSET   2.788160   0.000016   0.000000
                                        CHANNELS 3 Zrotation Xrotation Yrotation
                                        End Site
                                        {
                                            OFFSET   2.727660   0.000000   0.000000
                                        }
                                    }
                                }
                            }
                            JOINT LeftFinger3
                            {
                                OFFSET   7.899780   0.000017  -1.078090
                                CHANNELS 3 Zrotation Xrotation Yrotation
                                JOINT LeftFinger31
                                {
                                    OFFSET   4.646930   0.000000   0.000000
                                    CHANNELS 3 Zrotation Xrotation Yrotation
                                    JOINT LeftFinger32
                                    {
                                        OFFSET   2.323470   0.000000   0.000000
                                        CHANNELS 3 Zrotation Xrotation Yrotation
                                        End Site
                                        {
                                            OFFSET   2.273050   0.000000   0.000000
                                        }
                                    }
                                }
                            }
                            JOINT LeftFinger4
                            {
                                OFFSET   7.435090   0.000000  -3.252850
                                CHANNELS 3 Zrotation Xrotation Yrotation
                                JOINT LeftFinger41
                                {
                                    OFFSET   3.717550   0.000000   0.000000
                                    CHANNELS 3 Zrotation Xrotation Yrotation
                                    JOINT LeftFinger42
                                    {
                                        OFFSET   1.858770   0.000000   0.000000
                                        CHANNELS 3 Zrotation Xrotation Yrotation
                                        End Site
                                        {
                                            OFFSET   1.818440   0.000000   0.000000
                                        }
                                    }
                                }
                            }
                        }
                    }
                }
            }
            JOINT RightCollar
            {
                OFFSET  -3.911900  19.017000  -0.467063
                CHANNELS 3 Zrotation Xrotation Yrotation
                JOINT RightShoulder
                {
                    OFFSET -10.383700   0.000019   0.000000
                    CHANNELS 3 Zrotation Xrotation Yrotation
                    JOINT RightElbow
                    {
                        OFFSET -26.662100   0.001175   0.000102
                        CHANNELS 3 Zrotation Xrotation Yrotation
                        JOINT RightWrist
                        {
                            OFFSET -28.869000   0.000016  -0.000079
                            CHANNELS 3 Zrotation Xrotation Yrotation
                            JOINT RightFinger0
                            {
                                OFFSET  -2.044660  -2.323490   3.252850
                                CHANNELS 3 Zrotation Xrotation Yrotation
                                JOINT RightFinger01
                                {
                                    OFFSET  -3.088140   0.000000   0.000000
                                    CHANNELS 3 Zrotation Xrotation Yrotation
                                    JOINT RightFinger02
                                    {
                                        OFFSET  -2.639460   0.000000   0.000000
                                        CHANNELS 3 Zrotation Xrotation Yrotation
                                        End Site
                                        {
                                            OFFSET  -2.582190   0.000000   0.000000
                                        }
                                    }
                                }
                            }
                            JOINT RightFinger1
                            {
                                OFFSET  -8.364480   0.000000   3.252850
                                CHANNELS 3 Zrotation Xrotation Yrotation
                                JOINT RightFinger11
                                {
                                    OFFSET  -4.646930   0.000000   0.000000
                                    CHANNELS 3 Zrotation Xrotation Yrotation
                                    JOINT RightFinger12
                                    {
                                        OFFSET  -2.323470   0.000000   0.000000
                                        CHANNELS 3 Zrotation Xrotation Yrotation
                                        End Site
                                        {
                                            OFFSET  -2.273050   0.000000   0.000000
                                        }
                                    }
                                }
                            }
                            JOINT RightFinger2
                            {
                                OFFSET  -8.364480   0.000000   1.078090
                                CHANNELS 3 Zrotation Xrotation Yrotation
                                JOINT RightFinger21
                                {
                                    OFFSET  -5.111620   0.000000   0.000000
                                    CHANNELS 3 Zrotation Xrotation Yrotation
                                    JOINT RightFinger22
                                    {
                                        OFFSET  -2.788160   0.000000   0.000000
                                        CHANNELS 3 Zrotation Xrotation Yrotation
                                        End Site
                                        {
                                            OFFSET  -2.727660   0.000000   0.000000
                                        }
                                    }
                                }
                            }
                            JOINT RightFinger3
                            {
                                OFFSET  -7.899780   0.000000  -1.078090
                                CHANNELS 3 Zrotation Xrotation Yrotation
                                JOINT RightFinger31
                                {
                                    OFFSET  -4.646930   0.000000   0.000000
                                    CHANNELS 3 Zrotation Xrotation Yrotation
                                    JOINT RightFinger32
                                    {
                                        OFFSET  -2.323470   0.000000   0.000000
                                        CHANNELS 3 Zrotation Xrotation Yrotation
                                        End Site
                                        {
                                            OFFSET  -2.273050   0.000000   0.000000
                                        }
                                    }
                                }
                            }
                            JOINT RightFinger4
                            {
                                OFFSET  -7.435090   0.000000  -3.252850
                                CHANNELS 3 Zrotation Xrotation Yrotation
                                JOINT RightFinger41
                                {
                                    OFFSET  -3.717550   0.000000   0.000000
                                    CHANNELS 3 Zrotation Xrotation Yrotation
                                    JOINT RightFinger42
                                    {
                                        OFFSET  -1.858770   0.000000   0.000000
                                        CHANNELS 3 Zrotation Xrotation Yrotation
                                        End Site
                                        {
                                            OFFSET  -1.818440   0.000000   0.000000
                                        }
                                    }
                                }
                            }
                        }
                    }
                }
            }
        }
    }
    JOINT LeftHip
    {
        OFFSET   9.783040   0.000000   0.000000
        CHANNELS 3 Zrotation Xrotation Yrotation
        JOINT LeftKnee
        {
            OFFSET   0.000032 -41.789100  -0.002222
            CHANNELS 3 Zrotation Xrotation Yrotation
            JOINT LeftAnkle
            {
                OFFSET   0.000087 -41.133200  -0.000135
                CHANNELS 3 Zrotation Xrotation Yrotation
                JOINT LeftToe
                {
                    OFFSET   0.000000  -6.358960  14.674500
                    CHANNELS 3 Zrotation Xrotation Yrotation
                    End Site
                    {
                        OFFSET   0.000000   0.000000   3.913200
                    }
                }
            }
        }
    }
    JOINT RightHip
    {
        OFFSET  -9.783040   0.000000   0.000000
        CHANNELS 3 Zrotation Xrotation Yrotation
        JOINT RightKnee
        {
            OFFSET   0.000047 -41.789100  -0.000896
            CHANNELS 3 Zrotation Xrotation Yrotation
            JOINT RightAnkle
            {
                OFFSET  -0.000117 -41.133300  -0.000248
                CHANNELS 3 Zrotation Xrotation Yrotation
                JOINT RightToe
                {
                    OFFSET   0.000000  -6.358970  14.674500
                    CHANNELS 3 Zrotation Xrotation Yrotation
                    End Site
                    {
                        OFFSET   0.000000   0.000000   3.913200
                    }
                }
            }
        }
    }
}
MOTION
Frames: 6
Frame Time:   0.016667
  0.559720  89.596900  -0.105238  -2.616340  -9.174040  -0.355549   0.624462   5.357780   0.167798   1.241290  10.717100   0.278475  -0.033596  -0.605193   0.005314  -0.055268  -1.227390   2.380170  -4.925080  -0.898603  -0.092031 -73.581700  11.739800   2.230010  -1.302310  -2.870470 -18.078400  12.716800  -3.404420  -3.547380  40.723200  29.784000 -61.082200 -26.128600   0.000781   0.000451  -8.064310   0.001089   0.000119 -29.751500   3.639940  -6.334320 -24.507100   0.005079  -0.000113 -17.154900   0.003998   0.001690 -27.485400  -4.243990   8.110100 -30.704000  -0.018239   0.000311 -20.448900   0.000607   0.000412 -26.683800  -4.219630   8.328980 -26.982600  -0.001845   0.001853 -17.970400  -0.002335   0.002831 -29.417400  -4.613610   8.118420 -44.617600  -0.003322  -0.001253 -29.715300  -0.001130  -0.013326   7.952020  -0.632462   6.559460  70.652900   5.629350 -11.603900  -1.785920  -3.991410  14.641700  -8.418850  -6.450290   5.099030 -51.141800  44.309500  86.771100  24.050900  -0.009133   0.003053   7.025410  -0.001573  -0.001884  29.602300   3.941060   6.897860  24.414500  -0.001014  -0.002930  17.090100  -0.000697  -0.005446  28.333900   1.478100   2.737500  34.934300   0.001073  -0.002269  23.266200   0.002203  -0.003425  28.685100   1.493770   2.728990  39.261900   0.000291   0.002388  26.148400  -0.012303   0.007942  35.647100   0.079703   0.115212  53.470700  -0.006288   0.001593  35.611500  -0.002793   0.003301   1.584730  10.090200  -1.691980   1.147240   0.447840   6.877540  -0.490989  -2.179570  -2.496510  -0.000000   0.000000   0.000000   4.102660   7.506120  -0.408846  -2.643980   4.956090 -18.542500   0.789574  -3.614060   2.470590   0.000000   0.000000  -0.000000
  0.569823  89.596800  -0.123607  -2.616970  -9.183790  -0.335274   0.624729   5.365450   0.172201   1.241310  10.732500   0.287236  -0.018902  -0.625256   0.005305  -0.031120  -1.267860   2.348860  -4.924950  -0.911659  -0.092034 -73.582800  11.740900   2.230940  -1.299470  -2.864610 -18.065500  12.734400  -3.410080  -3.541060  40.702300  29.766200 -61.069000 -26.142100   0.000773   0.000440  -8.071080   0.001082   0.000126 -29.767800   3.636310  -6.325500 -24.519900   0.004998  -0.000108 -17.163900   0.003878   0.001681 -27.489300  -4.244070   8.107800 -30.725500  -0.015366   0.000340 -20.463200   0.000622   0.000440 -26.688600  -4.228610   8.344700 -26.997800  -0.001841   0.001862 -17.980500  -0.002335   0.002842 -29.420100  -4.623050   8.133870 -44.623500  -0.003330  -0.001254 -29.719200  -0.001142  -0.013329   7.964210  -0.675175   6.576630  70.639000   5.628790 -11.633800  -1.831590  -3.967260  14.695900  -8.410640  -6.435200   5.139290 -51.145600  44.292900  86.775500  24.012800  -0.009131   0.003011   7.006370  -0.001571  -0.001893  29.590100   3.954810   6.925860  24.406100  -0.001055  -0.002923  17.084200  -0.000724  -0.005449  28.332800   1.490010   2.759860  34.903100   0.001019  -0.002280  23.245500   0.002099  -0.003440  28.683700   1.505880   2.751270  39.280600   0.000331   0.002368  26.160900  -0.012308   0.007926  35.650200   0.079628   0.115213  53.475300  -0.006270   0.001574  35.614600  -0.002755   0.003284   1.584920  10.097900  -1.691910   1.144680   0.424862   6.867140  -0.486638  -2.158200  -2.506690   0.000000   0.000000   0.000000   4.102770   7.497870  -0.409593  -2.645240   4.969750 -18.541500   0.806274  -3.621630   2.463030   0.000000   0.000000  -0.000000
  0.585310  89.596700  -0.154376  -2.619000  -9.206080  -0.305227   0.624529   5.383430   0.181228   1.240150  10.768600   0.305237   0.006827  -0.664744   0.005287   0.011175  -1.347710   2.290520  -4.924790  -0.940249  -0.092053 -73.586700  11.749000   2.231930  -1.294670  -2.858970 -18.039200  12.756800  -3.422260  -3.534760  40.684400  29.743700 -61.061700 -26.168100   0.000756   0.000422  -8.084070   0.001065   0.000143 -29.793600   3.630480  -6.310920 -24.540400   0.004917  -0.000100 -17.178300   0.003758   0.001672 -27.497000  -4.244200   8.103240 -30.768700  -0.009835   0.000369 -20.492000   0.000636   0.000469 -26.697200  -4.242570   8.368670 -27.029000  -0.001832   0.001884 -18.001300  -0.002335   0.002864 -29.426200  -4.637770   8.157360 -44.635600  -0.003351  -0.001257 -29.727300  -0.001153  -0.013336   7.985730  -0.758822   6.603230  70.627100   5.628110 -11.682100  -1.910380  -3.942000  14.811300  -8.403200  -6.411950   5.179460 -51.142900  44.268800  86.780800  23.974700  -0.009129   0.002935   6.987320  -0.001562  -0.001901  29.572100   3.968560   6.953860  24.392700  -0.001124  -0.002906  17.074900  -0.000770  -0.005455  28.331600   1.503660   2.785910  34.853500   0.000928  -0.002305  23.212500   0.001906  -0.003475  28.682100   1.520170   2.776950  39.324600   0.000398   0.002325  26.190200  -0.012318   0.007890  35.659700   0.079553   0.115213  53.489600  -0.006230   0.001532  35.624100  -0.002672   0.003246   1.585320  10.113100  -1.691850   1.139050   0.393434   6.850320  -0.480103  -2.125410  -2.520190  -0.000000   0.000000   0.000000   4.103240   7.486100  -0.410338  -2.648290   4.999240 -18.539200   0.833700  -3.638000   2.450080   0.000000   0.000000   0.000000
  0.594840  89.596600  -0.179305  -2.621660  -9.235720  -0.286407   0.623107   5.408320   0.192512   1.236130  10.818400   0.327842   0.030044  -0.709263   0.005267   0.049365  -1.438200   2.230080  -4.924870  -0.977224  -0.098931 -73.593600  11.796900   2.219090  -1.290080  -2.898970 -18.006500  12.761400  -3.442720  -3.535420  40.663500  29.739300 -61.088600 -26.204400   0.000730   0.000408  -8.102180   0.001039   0.000168 -29.812800   3.625330  -6.296700 -24.555500   0.005324  -0.000095 -17.188900   0.003788   0.001697 -27.506800  -4.244360   8.097770 -30.823900  -0.002154   0.000300 -20.528700   0.000603   0.000410 -26.706000  -4.253470   8.385960 -27.070000  -0.001820   0.001914 -18.028600  -0.002335   0.002896 -29.435700  -4.649500   8.174100 -44.651700  -0.003383  -0.001264 -29.738100  -0.001120  -0.013348   8.007670  -0.853400   6.623700  70.640100   5.651630 -11.719400  -1.981190  -3.942440  14.933500  -8.407800  -6.394010   5.177510 -51.084200  44.261800  86.767900  24.052300  -0.009134   0.002848   7.026150  -0.001538  -0.001879  29.565300   3.965640   6.951660  24.387000  -0.001191  -0.002875  17.070900  -0.000818  -0.005461  28.331200   1.504820   2.788370  34.836000   0.000836  -0.002341  23.200900   0.001651  -0.003529  28.682000   1.521620   2.779220  39.383800   0.000467   0.002267  26.229600  -0.012330   0.007838  35.679000   0.079742   0.109707  53.518700  -0.006174   0.001471  35.643500  -0.002552   0.003192   1.589590  10.125000  -1.691870   1.131750   0.387566   6.837430  -0.476602  -2.107530  -2.524070   0.000000   0.000000  -0.000000   4.103640   7.480280  -0.406152  -2.652250   5.036390 -18.536000   0.855236  -3.659200   2.438680   0.000000   0.000000   0.000000
  0.602794  89.596500  -0.204436  -2.627530  -9.274370  -0.277375   0.621556   5.440310   0.204803   1.231870  10.882500   0.352399   0.054679  -0.760595   0.005243   0.089867  -1.542490   2.163930  -4.925170  -1.022860  -0.113333 -73.600400  11.869900   2.198210  -1.287580  -2.961910 -17.973700  12.761200  -3.456650  -3.539540  40.637300  29.747100 -61.129200 -26.228200   0.000699   0.000396  -8.114080   0.001006   0.000197 -29.828100   3.622370  -6.288240 -24.567700   0.006471  -0.000088 -17.197400   0.003998   0.001746 -27.516200  -4.244480   8.092020 -30.877300   0.003030   0.000185 -20.564300   0.000554   0.000293 -26.714900  -4.259400   8.395000 -27.111200  -0.001805   0.001947 -18.056100  -0.002335   0.002929 -29.444600  -4.655950   8.182790 -44.666800  -0.003424  -0.001272 -29.748100  -0.000944  -0.013364   8.026480  -0.959944   6.634860  70.658600   5.687340 -11.752100  -2.056880  -3.957440  15.132200  -8.412830  -6.384350   5.165060 -50.915800  44.242800  86.673900  24.129900  -0.009145   0.002793   7.064990  -0.001512  -0.001858  29.550500   3.962730   6.949470  24.374600  -0.001232  -0.002836  17.062200  -0.000848  -0.005470  28.329000   1.505980   2.790820  34.787400   0.000781  -0.002384  23.168400   0.001486  -0.003594  28.682300   1.523070   2.781490  39.463800   0.000509   0.002205  26.282900  -0.012343   0.007784  35.698600   0.080177   0.101976  53.548000  -0.006115   0.001406  35.663000  -0.002424   0.003135   1.598960  10.149800  -1.691990   1.122830   0.380245   6.826200  -0.473641  -2.088190  -2.524590  -0.000000   0.000000  -0.000000   4.107730   7.477980  -0.396913  -2.658330   5.082800 -18.531900   0.875391  -3.684430   2.427480   0.000000   0.000000   0.000000
  0.609734  89.596500  -0.229884  -2.638570  -9.322260  -0.277688   0.621116   5.478670   0.218360   1.229740  10.959400   0.379139   0.080660  -0.815989   0.005211   0.132619  -1.654580   2.094890  -4.927310  -1.076990  -0.134503 -73.604800  11.936200   2.183580  -1.290430  -3.010020 -17.948400  12.748000  -3.430610  -3.562330  40.647200  29.772100 -61.175800 -26.223400   0.000666   0.000393  -8.111700   0.000969   0.000216 -29.830500   3.631640  -6.303040 -24.571100   0.008494  -0.000082 -17.199800   0.004643   0.001810 -27.521300  -4.244460   8.087260 -30.906100   0.003194   0.000098 -20.583500   0.000527   0.000144 -26.722900  -4.250760   8.375640 -27.137700  -0.001788   0.001983 -18.073700  -0.002335   0.002959 -29.450900  -4.646040   8.164060 -44.674500  -0.003470  -0.001281 -29.752800  -0.000528  -0.013383   8.029660  -1.072170   6.625550  70.675600   5.712070 -11.778300  -2.101130  -4.049350  15.454600  -8.375960  -6.397460   5.085150 -50.581400  43.897200  86.453800  24.018000  -0.009159   0.002855   7.009050  -0.001498  -0.001863  29.510400   3.967500   6.965940  24.343900  -0.001205  -0.002791  17.040700  -0.000829  -0.005485  28.314600   1.514460   2.808390  34.653700   0.000818  -0.002431  23.079300   0.001509  -0.003668  28.684000   1.532710   2.798510  39.567300   0.000482   0.002144  26.351900  -0.012354   0.007734  35.709100   0.080830   0.098584  53.563600  -0.006061   0.001346  35.673400  -0.002306   0.003080   1.612740  10.207600  -1.692310   1.112780   0.336783   6.818520  -0.470056  -2.055250  -2.520570  -0.000000   0.000000  -0.000000   4.119690   7.480740  -0.383283  -2.667450   5.137610 -18.527800   0.892017  -3.709810   2.416260   0.000000   0.000000   0.000000
